<svg width="391" height="76" viewBox="0 0 391 76" fill="none" xmlns="http://www.w3.org/2000/svg">
<path d="M62.0299 3.05176e-05C63.2318 8.69538 59.8327 19.2291 52.6098 27.1293C45.3869 35.0292 35.7564 38.4731 27.8065 37.1587C27.8065 28.3114 30.0776 18.2844 37.3003 10.3845C44.5232 2.48452 53.9409 3.05176e-05 62.0299 3.05176e-05Z" fill="#00AB4A"/>
<path d="M62.0299 76C63.2318 67.3047 59.8327 56.704 52.6098 48.8039C45.3869 40.9039 35.7564 37.46 27.8065 38.7744C27.8065 47.6217 30.0776 57.6487 37.3003 65.5486C44.5232 73.4486 53.9409 76 62.0299 76Z" fill="#00AB4A"/>
<rect width="4.07327" height="75.9331" transform="matrix(-1 0 0 1 4.07329 3.05176e-05)" fill="#00AB4A"/>
<rect width="6.60173" height="75.9331" transform="matrix(-1 0 0 1 12.8338 3.05176e-05)" fill="#00AB4A"/>
<rect width="10.6948" height="75.9331" transform="matrix(-1 0 0 1 25.6675 3.05176e-05)" fill="#00AB4A"/>
<path d="M92.2952 43.0495C96.1043 42.9838 98.8954 42.1301 100.669 40.4882C102.442 38.8464 103.328 36.7776 103.328 34.282C103.328 31.7864 102.573 29.6848 101.063 27.9773C99.5522 26.2697 97.5163 25.416 94.955 25.416C92.7877 25.416 91.0145 26.1384 89.6353 27.5832C88.2562 29.0281 87.5666 31.0311 87.5666 33.5924C87.5666 35.8253 86.9755 37.5329 85.7934 38.715C84.6113 39.8315 83.1336 40.3897 81.3604 40.3897C80.3753 40.3897 79.3245 40.1927 78.208 39.7986C77.1573 39.4046 76.1721 38.8792 75.2527 38.2225C74.3989 37.5 73.6765 36.6791 73.0855 35.7597C72.5601 34.7746 72.2974 33.7566 72.2974 32.7058C72.2974 31.064 72.7899 29.652 73.775 28.4698C74.7601 27.222 76.0736 26.2041 77.7155 25.416C79.3573 24.5622 81.1962 23.9383 83.2321 23.5443C85.268 23.0845 87.3039 22.8547 89.3398 22.8547C92.5578 22.8547 95.5789 23.2487 98.4029 24.0368C101.293 24.7592 103.821 25.8757 105.988 27.3862C108.155 28.831 109.863 30.6371 111.111 32.8043C112.424 34.9059 113.081 37.3358 113.081 40.0942V67.3818C113.147 68.2356 113.311 68.9908 113.574 69.6476C113.771 70.2386 114.099 70.7969 114.559 71.3223C115.084 71.782 115.807 72.0118 116.726 72.0118H117.711C118.171 72.0118 118.433 72.2089 118.499 72.6029C118.499 73.1283 118.039 73.5552 117.12 73.8836C116.201 74.2119 115.15 74.4746 113.968 74.6716C112.851 74.8687 111.735 75 110.618 75.0657C109.502 75.1314 108.747 75.1642 108.353 75.1642C106.12 75.0985 104.018 74.7702 102.048 74.1791C100.143 73.588 98.8297 72.5044 98.1073 70.9282C96.7282 72.3074 95.0535 73.391 93.0832 74.1791C91.113 75.0329 88.5517 75.4597 85.3994 75.4597C83.1008 75.4597 80.835 75.0657 78.6021 74.2776C76.3692 73.5552 74.3661 72.4716 72.5929 71.0267C70.8197 69.5162 69.3749 67.7102 68.2584 65.6086C67.2076 63.507 66.6822 61.0771 66.6822 58.3188C66.6822 55.2321 67.3061 52.6708 68.5539 50.6349C69.8674 48.599 71.4108 46.99 73.184 45.8078C75.0228 44.6257 76.8946 43.8048 78.7991 43.345C80.7693 42.8853 82.3783 42.6555 83.6262 42.6555C85.1367 42.7868 86.6472 42.8853 88.1577 42.951C89.7339 43.0167 91.113 43.0495 92.2952 43.0495ZM89.7339 72.7999C91.8354 72.7999 93.5758 71.3879 94.955 68.5639C96.3998 65.6743 97.1222 61.4054 97.1222 55.7575V46.7929C97.1222 45.4138 96.367 44.7242 94.8565 44.7242C94.2654 44.7242 93.5758 44.7242 92.7877 44.7242C92.0653 44.7242 91.2772 44.757 90.4234 44.8227C89.5697 44.8884 88.7159 45.1182 87.8622 45.5123C87.0084 45.8407 86.2531 46.4974 85.5964 47.4825C84.9396 48.4676 84.4143 49.7811 84.0202 51.423C83.6262 53.0648 83.4291 55.1992 83.4291 57.8262C83.4291 63.0145 84.053 66.8236 85.3009 69.2535C86.6143 71.6178 88.092 72.7999 89.7339 72.7999Z" fill="#092823"/>
<path d="M121.056 12.117C121.056 11.3945 120.892 10.8363 120.563 10.4423C120.235 10.0482 119.841 9.75268 119.381 9.55566C118.987 9.35864 118.527 9.22729 118.002 9.16162C117.542 9.09594 117.115 9.0631 116.721 9.0631C116.262 9.19445 116.032 8.96459 116.032 8.37352C115.9 7.97948 116.097 7.71678 116.623 7.58543C117.936 7.38841 119.578 7.0272 121.548 6.50181C123.584 5.97641 125.653 5.38535 127.755 4.7286C129.922 4.07186 132.023 3.38228 134.059 2.65986C136.095 1.87178 137.77 1.14936 139.083 0.492614C139.149 0.426941 139.28 0.394104 139.477 0.394104C139.806 0.394104 140.003 0.492616 140.069 0.68964C140.331 1.08368 140.298 1.37922 139.97 1.57624C139.445 1.90461 138.788 2.62703 138 3.74349C137.212 4.79428 136.818 6.30479 136.818 8.27501V67.3818C136.883 68.2356 137.048 68.9908 137.31 69.6476C137.507 70.2386 137.836 70.7969 138.295 71.3223C138.821 71.782 139.543 72.0118 140.463 72.0118H141.251C141.842 72.0118 142.006 72.2417 141.743 72.7014L141.349 73.391C141.152 73.7194 140.889 73.8836 140.561 73.8836H117.608C117.214 73.8836 116.918 73.6865 116.721 73.2925L116.524 72.7999C116.327 72.3402 116.524 72.1104 117.115 72.1104H117.805C118.396 72.0447 118.954 71.8805 119.48 71.6178C119.874 71.3551 120.235 70.961 120.563 70.4357C120.892 69.9103 121.056 69.155 121.056 68.1699V12.117Z" fill="#092823"/>
<path d="M140.87 28.2728C141.987 28.1415 143.3 27.9116 144.811 27.5832C146.387 27.1892 148.062 26.7623 149.835 26.3026C151.608 25.8429 153.414 25.3503 155.253 24.8249C157.158 24.2995 158.964 23.8398 160.671 23.4458H160.967C161.361 23.4458 161.591 23.5443 161.656 23.7413L161.755 23.8398C161.886 24.0368 161.952 24.3324 161.952 24.7264C161.821 25.1861 161.624 25.9414 161.361 26.9922C161.164 27.9773 161.065 28.9624 161.065 29.9475V67.3818C161.131 68.2356 161.295 68.9908 161.558 69.6476C161.755 70.2386 162.083 70.7969 162.543 71.3223C163.068 71.782 163.791 72.0118 164.71 72.0118H165.498C166.089 72.0118 166.254 72.2417 165.991 72.7014L165.597 73.391C165.4 73.7194 165.137 73.8836 164.809 73.8836H141.856C141.462 73.8836 141.166 73.6865 140.969 73.2925L140.772 72.7999C140.575 72.3402 140.772 72.1104 141.363 72.1104H142.053C142.644 72.0447 143.202 71.8805 143.727 71.6178C144.121 71.3551 144.483 70.961 144.811 70.4357C145.139 69.9103 145.303 69.155 145.303 68.1699V32.8043C145.303 32.0819 145.139 31.5237 144.811 31.1296C144.483 30.7356 144.089 30.4401 143.629 30.243C143.235 30.046 142.775 29.9147 142.25 29.849C141.79 29.7833 141.363 29.7505 140.969 29.7505C140.509 29.8818 140.279 29.652 140.279 29.0609C140.148 28.6669 140.345 28.4042 140.87 28.2728ZM149.539 6.89585C151.444 6.30479 153.217 6.00925 154.859 6.00925C156.567 6.00925 158.077 6.4033 159.391 7.19139C160.704 7.9138 161.624 9.22729 162.149 11.1318C162.543 12.4453 162.609 13.6603 162.346 14.7768C162.083 15.8275 161.558 16.7798 160.77 17.6336C160.047 18.4217 159.062 19.1441 157.814 19.8008C156.632 20.3919 155.319 20.9173 153.874 21.377C152.955 21.7054 152.035 21.9681 151.116 22.1651C150.196 22.2965 149.31 22.3621 148.456 22.3621C146.748 22.3621 145.238 21.9681 143.924 21.18C142.676 20.3919 141.79 19.0784 141.265 17.2395C140.87 15.9261 140.805 14.7439 141.067 13.6931C141.33 12.5767 141.823 11.5916 142.545 10.7378C143.333 9.88403 144.318 9.16161 145.5 8.57054C146.748 7.9138 148.095 7.35557 149.539 6.89585Z" fill="#092823"/>
<path d="M165.989 40.0942C165.989 37.3358 166.612 34.9059 167.86 32.8043C169.174 30.6371 170.914 28.831 173.081 27.3862C175.249 25.8757 177.744 24.7592 180.568 24.0368C183.458 23.2487 186.512 22.8547 189.73 22.8547C191.831 22.8547 193.867 23.0845 195.837 23.5443C197.873 23.9383 199.712 24.5622 201.354 25.416C202.996 26.2041 204.309 27.222 205.295 28.4698C206.28 29.652 206.772 31.064 206.772 32.7058C206.772 33.8223 206.477 34.8402 205.886 35.7597C205.36 36.6791 204.638 37.5 203.718 38.2225C202.865 38.8792 201.912 39.4046 200.862 39.7986C199.811 40.1927 198.76 40.3897 197.709 40.3897C195.936 40.3897 194.458 39.8315 193.276 38.715C192.094 37.5329 191.503 35.8253 191.503 33.5924C191.503 31.0311 190.781 29.1266 189.336 27.8788C187.957 26.631 186.315 26.007 184.41 26.007C182.309 26.007 180.503 26.631 178.992 27.8788C177.547 29.0609 176.825 30.7356 176.825 32.9028C176.825 34.085 177.087 35.2671 177.613 36.4492C178.138 37.6314 178.926 38.6822 179.977 39.6016C181.094 40.521 182.473 41.2763 184.115 41.8674C185.822 42.4584 187.825 42.754 190.124 42.754C190.649 42.754 191.207 42.754 191.798 42.754C192.39 42.754 193.013 42.6883 193.67 42.557H193.867C194.984 42.557 196.396 42.7868 198.103 43.2465C199.811 43.7062 201.453 44.5272 203.029 45.7093C204.605 46.8914 205.951 48.5005 207.068 50.5364C208.25 52.5723 208.841 55.1336 208.841 58.2202C208.841 60.9786 208.25 63.4414 207.068 65.6086C205.886 67.7102 204.211 69.5162 202.044 71.0267C199.942 72.4716 197.414 73.5552 194.458 74.2776C191.503 75.0657 188.252 75.4597 184.706 75.4597C182.407 75.4597 180.141 75.2299 177.908 74.7701C175.675 74.3761 173.672 73.785 171.899 72.9969C170.126 72.1432 168.681 71.1252 167.565 69.9431C166.514 68.6953 165.989 67.2505 165.989 65.6086C165.989 64.4265 166.284 63.3757 166.875 62.4562C167.532 61.4711 168.353 60.6502 169.338 59.9935C170.323 59.3367 171.407 58.8442 172.589 58.5158C173.771 58.1217 174.887 57.9247 175.938 57.9247C177.908 57.9247 179.517 58.5158 180.765 59.6979C182.079 60.8144 182.735 62.4891 182.735 64.722C182.735 67.0863 183.458 68.958 184.903 70.3371C186.413 71.6506 188.318 72.3074 190.616 72.3074C192.521 72.3074 194.228 71.7163 195.739 70.5342C197.249 69.352 198.005 67.6445 198.005 65.4116C198.005 64.1638 197.742 62.9488 197.217 61.7667C196.691 60.5188 195.903 59.4024 194.852 58.4173C193.802 57.4322 192.455 56.6441 190.813 56.053C189.172 55.4619 187.234 55.1664 185.001 55.1664C183.819 55.1664 182.538 55.2649 181.159 55.4619H180.962C179.846 55.4619 178.434 55.2321 176.726 54.7724C175.019 54.247 173.377 53.3932 171.801 52.2111C170.225 51.0289 168.845 49.4527 167.663 47.4825C166.547 45.5123 165.989 43.0495 165.989 40.0942Z" fill="#092823"/>
<path d="M211.679 12.117C211.679 11.3945 211.514 10.8363 211.186 10.4423C210.858 10.0482 210.464 9.75268 210.004 9.55566C209.61 9.35864 209.15 9.22729 208.625 9.16162C208.165 9.09594 207.738 9.0631 207.344 9.0631C206.884 9.19445 206.654 8.96459 206.654 8.37352C206.523 7.97948 206.72 7.71678 207.246 7.58543C208.559 7.38841 210.201 7.0272 212.171 6.50181C214.207 5.97641 216.276 5.38535 218.377 4.7286C220.545 4.07186 222.646 3.38228 224.682 2.65986C226.718 1.87178 228.393 1.14936 229.706 0.492614C229.772 0.426941 229.903 0.394104 230.1 0.394104C230.429 0.394104 230.626 0.492616 230.691 0.68964C230.954 1.08368 230.921 1.37922 230.593 1.57624C230.067 1.90461 229.411 2.62703 228.622 3.74349C227.834 4.79428 227.44 6.30479 227.44 8.27501V67.3818C227.506 68.2356 227.67 68.9908 227.933 69.6476C228.13 70.2386 228.458 70.7969 228.918 71.3223C229.443 71.782 230.166 72.0118 231.085 72.0118H231.873C232.464 72.0118 232.629 72.2417 232.366 72.7014L231.972 73.391C231.775 73.7194 231.512 73.8836 231.184 73.8836H208.231C207.837 73.8836 207.541 73.6865 207.344 73.2925L207.147 72.7999C206.95 72.3402 207.147 72.1104 207.738 72.1104H208.428C209.019 72.0447 209.577 71.8805 210.102 71.6178C210.496 71.3551 210.858 70.961 211.186 70.4357C211.514 69.9103 211.679 69.155 211.679 68.1699V12.117Z" fill="#092823"/>
<path d="M230.911 49.0587C230.911 44.9212 231.601 41.2435 232.98 38.0254C234.359 34.8074 236.231 32.0819 238.595 29.849C241.025 27.5504 243.849 25.81 247.067 24.6279C250.285 23.4458 253.7 22.8547 257.312 22.8547C260.99 22.8547 264.405 23.4458 267.558 24.6279C270.776 25.81 273.567 27.5504 275.931 29.849C278.361 32.0819 280.265 34.8074 281.645 38.0254C283.024 41.2435 283.713 44.9212 283.713 49.0587C283.713 53.1962 283.024 56.8739 281.645 60.092C280.265 63.31 278.361 66.0683 275.931 68.3669C273.567 70.5998 270.776 72.3074 267.558 73.4895C264.405 74.6716 260.99 75.2627 257.312 75.2627C253.7 75.2627 250.285 74.6716 247.067 73.4895C243.849 72.3074 241.025 70.5998 238.595 68.3669C236.231 66.0683 234.359 63.31 232.98 60.092C231.601 56.8739 230.911 53.1962 230.911 49.0587ZM244.604 69.549C245.261 69.8774 245.885 70.0416 246.476 70.0416C248.446 70.0416 250.909 68.7281 253.864 66.1012C256.885 63.4085 260.169 59.1069 263.716 53.1962C267.919 46.1034 270.382 40.4882 271.104 36.3507C271.826 32.2133 271.235 29.5863 269.331 28.4698C268.674 28.1415 268.017 27.9773 267.36 27.9773C265.39 27.9773 262.895 29.3236 259.874 32.0162C256.918 34.6432 253.667 38.9449 250.121 44.9212C245.918 51.9484 243.455 57.5307 242.733 61.6681C242.076 65.8056 242.7 68.4326 244.604 69.549Z" fill="#092823"/>
<path d="M341.393 72.1104C341.327 72.373 341.097 72.5701 340.703 72.7014L328.488 74.7701C325.861 74.7701 323.693 74.2448 321.986 73.194C320.344 72.0775 318.833 70.4685 317.454 68.3669L310.755 58.3188C309.836 56.8083 308.785 55.5933 307.603 54.6738C306.487 53.6887 305.14 53.1962 303.564 53.1962C303.039 53.1962 302.645 53.229 302.382 53.2947V67.3818C302.448 68.2356 302.612 68.9908 302.875 69.6476C303.072 70.2386 303.4 70.7969 303.86 71.3223C304.385 71.782 305.108 72.0118 306.027 72.0118H306.815C307.406 72.0118 307.57 72.2417 307.308 72.7014L306.914 73.391C306.717 73.7194 306.454 73.8836 306.125 73.8836H283.172C282.778 73.8836 282.483 73.6865 282.286 73.2925L282.089 72.7999C281.892 72.3402 282.089 72.1104 282.68 72.1104H283.369C284.223 72.1104 284.847 71.9133 285.241 71.5193C285.701 71.1252 286.029 70.6655 286.226 70.1401C286.489 69.549 286.62 68.8923 286.62 68.1699V12.117C286.62 11.3945 286.456 10.8363 286.128 10.4423C285.799 10.0482 285.405 9.75268 284.946 9.55566C284.551 9.35864 284.092 9.22729 283.566 9.16162C283.107 9.09594 282.68 9.0631 282.286 9.0631C281.826 9.19445 281.596 8.96459 281.596 8.37352C281.465 7.97948 281.662 7.71678 282.187 7.58543C283.501 7.25706 285.143 6.86301 287.113 6.40329C289.149 5.8779 291.25 5.31967 293.418 4.7286C295.585 4.07186 297.654 3.38228 299.624 2.65986C301.66 1.93745 303.334 1.21503 304.648 0.492614C304.713 0.426941 304.845 0.394104 305.042 0.394104C305.37 0.394104 305.567 0.492616 305.633 0.68964C305.83 1.01801 305.797 1.31354 305.534 1.57624C305.075 2.03596 304.418 2.79121 303.564 3.842C302.776 4.82711 302.382 6.30479 302.382 8.27501V29.849C302.907 29.4549 303.663 28.8967 304.648 28.1743C305.699 27.3862 307.012 26.631 308.588 25.9085C310.23 25.1861 312.102 24.5622 314.203 24.0368C316.371 23.5114 318.801 23.2487 321.493 23.2487C324.777 23.2487 327.371 23.6756 329.276 24.5294C331.246 25.3831 332.756 26.4011 333.807 27.5832C334.858 28.7654 335.515 29.9803 335.777 31.2281C336.106 32.4103 336.27 33.3626 336.27 34.085C336.27 36.5149 335.777 38.6493 334.792 40.4882C333.873 42.3271 332.625 43.9361 331.049 45.3153C329.473 46.6287 327.667 47.778 325.631 48.7632C323.66 49.6826 321.625 50.4379 319.523 51.0289C321.034 51.2916 322.314 51.8499 323.365 52.7036C324.481 53.4917 325.565 54.5425 326.616 55.856C327.667 57.1695 328.75 58.68 329.867 60.3875C330.983 62.095 332.264 63.9996 333.709 66.1012C334.3 66.9549 334.956 67.7102 335.679 68.3669C336.336 68.958 337.058 69.5162 337.846 70.0416C338.634 70.5013 339.488 70.7312 340.407 70.7312H341.195C341.787 70.7312 341.951 70.961 341.688 71.4208L341.393 72.1104ZM317.06 36.6463C317.06 36.1209 316.995 35.3985 316.863 34.479C316.732 33.4939 316.403 32.5416 315.878 31.6222C315.418 30.7028 314.762 29.9147 313.908 29.2579C313.054 28.6012 311.872 28.2728 310.361 28.2728C308.523 28.2728 306.979 28.6669 305.731 29.4549C304.549 30.243 303.597 31.064 302.875 31.9177C302.809 31.9834 302.71 32.1476 302.579 32.4103L302.481 32.8043C302.415 32.87 302.382 33.0342 302.382 33.2969V50.1423C302.382 51.0618 302.907 51.5215 303.958 51.5215C305.14 51.3901 306.487 51.0946 307.997 50.6349C309.508 50.1095 310.92 49.2886 312.233 48.1721C313.612 47.0556 314.762 45.578 315.681 43.7391C316.601 41.8345 317.06 39.4703 317.06 36.6463Z" fill="#092823"/>
<path d="M364.067 43.0495C367.876 42.9838 370.667 42.1301 372.441 40.4882C374.214 38.8464 375.1 36.7776 375.1 34.282C375.1 31.7864 374.345 29.6848 372.835 27.9773C371.324 26.2697 369.288 25.416 366.727 25.416C364.56 25.416 362.786 26.1384 361.407 27.5832C360.028 29.0281 359.339 31.0311 359.339 33.5924C359.339 35.8253 358.747 37.5329 357.565 38.715C356.383 39.8315 354.905 40.3897 353.132 40.3897C352.147 40.3897 351.096 40.1927 349.98 39.7986C348.929 39.4046 347.944 38.8792 347.025 38.2225C346.171 37.5 345.448 36.6791 344.857 35.7597C344.332 34.7746 344.069 33.7566 344.069 32.7058C344.069 31.064 344.562 29.652 345.547 28.4698C346.532 27.222 347.846 26.2041 349.487 25.416C351.129 24.5622 352.968 23.9383 355.004 23.5443C357.04 23.0845 359.076 22.8547 361.112 22.8547C364.33 22.8547 367.351 23.2487 370.175 24.0368C373.064 24.7592 375.593 25.8757 377.76 27.3862C379.927 28.831 381.635 30.6371 382.883 32.8043C384.196 34.9059 384.853 37.3358 384.853 40.0942V67.3818C384.919 68.2356 385.083 68.9908 385.345 69.6476C385.543 70.2386 385.871 70.7969 386.331 71.3223C386.856 71.782 387.578 72.0118 388.498 72.0118H389.483C389.943 72.0118 390.205 72.2089 390.271 72.6029C390.271 73.1283 389.811 73.5552 388.892 73.8836C387.972 74.2119 386.922 74.4746 385.74 74.6716C384.623 74.8687 383.507 75 382.39 75.0657C381.274 75.1314 380.518 75.1642 380.124 75.1642C377.891 75.0985 375.79 74.7702 373.82 74.1791C371.915 73.588 370.602 72.5044 369.879 70.9282C368.5 72.3074 366.825 73.391 364.855 74.1791C362.885 75.0329 360.324 75.4597 357.171 75.4597C354.873 75.4597 352.607 75.0657 350.374 74.2776C348.141 73.5552 346.138 72.4716 344.365 71.0267C342.592 69.5162 341.147 67.7102 340.03 65.6086C338.979 63.507 338.454 61.0771 338.454 58.3188C338.454 55.2321 339.078 52.6708 340.326 50.6349C341.639 48.599 343.183 46.99 344.956 45.8078C346.795 44.6257 348.666 43.8048 350.571 43.345C352.541 42.8853 354.15 42.6555 355.398 42.6555C356.909 42.7868 358.419 42.8853 359.93 42.951C361.506 43.0167 362.885 43.0495 364.067 43.0495ZM361.506 72.7999C363.607 72.7999 365.348 71.3879 366.727 68.5639C368.172 65.6743 368.894 61.4054 368.894 55.7575V46.7929C368.894 45.4138 368.139 44.7242 366.628 44.7242C366.037 44.7242 365.348 44.7242 364.56 44.7242C363.837 44.7242 363.049 44.757 362.195 44.8227C361.342 44.8884 360.488 45.1182 359.634 45.5123C358.78 45.8407 358.025 46.4974 357.368 47.4825C356.712 48.4676 356.186 49.7811 355.792 51.423C355.398 53.0648 355.201 55.1992 355.201 57.8262C355.201 63.0145 355.825 66.8236 357.073 69.2535C358.386 71.6178 359.864 72.7999 361.506 72.7999Z" fill="#092823"/>
</svg>
