<svg width="196" height="63" viewBox="0 0 196 63" fill="none" xmlns="http://www.w3.org/2000/svg">
<g filter="url(#filter0_d_3_24)">
<path d="M41.5178 11.4C42.0239 15.0612 40.5927 19.4965 37.5515 22.8229C34.5103 26.1492 30.4553 27.5992 27.108 27.0458C27.108 23.3206 28.0643 19.0987 31.1054 15.7724C34.1466 12.4461 38.112 11.4 41.5178 11.4Z" fill="white"/>
<path d="M41.5178 43.4C42.0239 39.7388 40.5927 35.2754 37.5515 31.949C34.5103 28.6227 30.4553 27.1727 27.108 27.7261C27.108 31.4513 28.0643 35.6732 31.1054 38.9994C34.1466 42.3257 38.112 43.4 41.5178 43.4Z" fill="white"/>
<rect width="1.71506" height="31.9718" transform="matrix(-1 0 0 1 17.1151 11.4)" fill="white"/>
<rect width="2.77968" height="31.9718" transform="matrix(-1 0 0 1 20.8036 11.4)" fill="white"/>
<rect width="4.50307" height="31.9718" transform="matrix(-1 0 0 1 26.2074 11.4)" fill="white"/>
<path d="M54.6092 29.5837C56.2101 29.5558 57.3832 29.1918 58.1285 28.4919C58.8737 27.792 59.2464 26.9101 59.2464 25.8462C59.2464 24.7824 58.9289 23.8865 58.2941 23.1586C57.6592 22.4306 56.8036 22.0667 55.7271 22.0667C54.8162 22.0667 54.071 22.3747 53.4913 22.9906C52.9117 23.6065 52.6219 24.4604 52.6219 25.5523C52.6219 26.5041 52.3735 27.232 51.8766 27.736C51.3798 28.2119 50.7587 28.4499 50.0135 28.4499C49.5995 28.4499 49.1578 28.3659 48.6886 28.1979C48.247 28.0299 47.8329 27.806 47.4465 27.526C47.0877 27.218 46.7841 26.8681 46.5356 26.4761C46.3148 26.0562 46.2044 25.6222 46.2044 25.1743C46.2044 24.4744 46.4114 23.8725 46.8255 23.3685C47.2395 22.8366 47.7915 22.4026 48.4816 22.0667C49.1716 21.7027 49.9445 21.4368 50.8001 21.2688C51.6558 21.0728 52.5115 20.9748 53.3671 20.9748C54.7196 20.9748 55.9893 21.1428 57.1762 21.4788C58.3907 21.7867 59.4534 22.2627 60.3642 22.9066C61.2751 23.5225 61.9928 24.2924 62.5172 25.2163C63.0692 26.1122 63.3452 27.1481 63.3452 28.3239V39.9565C63.3728 40.3204 63.4419 40.6424 63.5523 40.9223C63.6351 41.1743 63.7731 41.4123 63.9663 41.6362C64.1871 41.8322 64.4907 41.9302 64.8772 41.9302H65.2912C65.4844 41.9302 65.5948 42.0142 65.6224 42.1822C65.6224 42.4061 65.4292 42.5881 65.0428 42.7281C64.6563 42.8681 64.2147 42.9801 63.7179 43.0641C63.2486 43.1481 62.7794 43.204 62.3102 43.232C61.8409 43.26 61.5235 43.274 61.3579 43.274C60.4194 43.246 59.5362 43.1061 58.7081 42.8541C57.9077 42.6021 57.3556 42.1402 57.052 41.4683C56.4724 42.0562 55.7685 42.5181 54.9404 42.8541C54.1124 43.218 53.0359 43.4 51.711 43.4C50.7449 43.4 49.7927 43.232 48.8542 42.8961C47.9157 42.5881 47.0739 42.1262 46.3286 41.5103C45.5834 40.8663 44.9761 40.0964 44.5069 39.2006C44.0653 38.3047 43.8445 37.2688 43.8445 36.0929C43.8445 34.7771 44.1067 33.6852 44.6311 32.8173C45.1831 31.9495 45.8318 31.2635 46.577 30.7596C47.3499 30.2557 48.1366 29.9057 48.937 29.7097C49.7651 29.5138 50.4413 29.4158 50.9658 29.4158C51.6006 29.4718 52.2355 29.5138 52.8703 29.5418C53.5327 29.5698 54.1124 29.5837 54.6092 29.5837ZM53.5327 42.2662C54.416 42.2662 55.1475 41.6642 55.7271 40.4604C56.3343 39.2285 56.638 37.4088 56.638 35.0011V31.1796C56.638 30.5916 56.3205 30.2977 55.6857 30.2977C55.4373 30.2977 55.1475 30.2977 54.8162 30.2977C54.5126 30.2977 54.1814 30.3117 53.8226 30.3397C53.4637 30.3677 53.1049 30.4656 52.7461 30.6336C52.3873 30.7736 52.0698 31.0536 51.7938 31.4735C51.5178 31.8935 51.297 32.4534 51.1314 33.1533C50.9658 33.8532 50.883 34.7631 50.883 35.883C50.883 38.0947 51.1452 39.7185 51.6696 40.7544C52.2217 41.7622 52.8427 42.2662 53.5327 42.2662Z" fill="white"/>
<path d="M66.6969 16.3974C66.6969 16.0894 66.6279 15.8515 66.4899 15.6835C66.3519 15.5155 66.1863 15.3895 65.9931 15.3055C65.8275 15.2215 65.6343 15.1656 65.4135 15.1376C65.2202 15.1096 65.0408 15.0956 64.8752 15.0956C64.682 15.1516 64.5854 15.0536 64.5854 14.8016C64.5302 14.6336 64.613 14.5216 64.8338 14.4656C65.3859 14.3817 66.0759 14.2277 66.904 14.0037C67.7596 13.7797 68.6291 13.5278 69.5123 13.2478C70.4232 12.9678 71.3065 12.6739 72.1621 12.3659C73.0178 12.0299 73.7217 11.722 74.2737 11.442C74.3013 11.414 74.3565 11.4 74.4393 11.4C74.5773 11.4 74.6601 11.442 74.6877 11.526C74.7981 11.694 74.7843 11.82 74.6463 11.904C74.4255 12.0439 74.1495 12.3519 73.8183 12.8278C73.487 13.2758 73.3214 13.9197 73.3214 14.7596V39.9565C73.349 40.3204 73.418 40.6424 73.5284 40.9223C73.6112 41.1743 73.7493 41.4123 73.9425 41.6362C74.1633 41.8322 74.4669 41.9302 74.8533 41.9302H75.1846C75.433 41.9302 75.502 42.0282 75.3916 42.2242L75.226 42.5181C75.1432 42.6581 75.0327 42.7281 74.8947 42.7281H65.2478C65.0822 42.7281 64.958 42.6441 64.8752 42.4761L64.7924 42.2662C64.7096 42.0702 64.7924 41.9722 65.0408 41.9722H65.3307C65.5791 41.9442 65.8137 41.8742 66.0345 41.7622C66.2001 41.6502 66.3519 41.4823 66.4899 41.2583C66.6279 41.0343 66.6969 40.7124 66.6969 40.2924V16.3974Z" fill="white"/>
<path d="M75.0248 23.2845C75.494 23.2285 76.046 23.1306 76.6809 22.9906C77.3433 22.8226 78.0472 22.6406 78.7924 22.4446C79.5377 22.2487 80.2967 22.0387 81.0696 21.8147C81.8701 21.5908 82.6291 21.3948 83.3468 21.2268H83.471C83.6366 21.2268 83.7332 21.2688 83.7608 21.3528L83.8022 21.3948C83.8574 21.4788 83.885 21.6047 83.885 21.7727C83.8298 21.9687 83.747 22.2907 83.6366 22.7386C83.5538 23.1586 83.5124 23.5785 83.5124 23.9985V39.9565C83.54 40.3204 83.609 40.6424 83.7194 40.9223C83.8022 41.1743 83.9402 41.4123 84.1334 41.6362C84.3542 41.8322 84.6579 41.9302 85.0443 41.9302H85.3755C85.6239 41.9302 85.6929 42.0282 85.5825 42.2242L85.4169 42.5181C85.3341 42.6581 85.2237 42.7281 85.0857 42.7281H75.4388C75.2732 42.7281 75.149 42.6441 75.0662 42.4761L74.9834 42.2662C74.9006 42.0702 74.9834 41.9722 75.2318 41.9722H75.5216C75.77 41.9442 76.0046 41.8742 76.2255 41.7622C76.3911 41.6502 76.5429 41.4823 76.6809 41.2583C76.8189 41.0343 76.8879 40.7124 76.8879 40.2924V25.2163C76.8879 24.9083 76.8189 24.6704 76.6809 24.5024C76.5429 24.3344 76.3773 24.2084 76.1841 24.1244C76.0184 24.0404 75.8252 23.9845 75.6044 23.9565C75.4112 23.9285 75.2318 23.9145 75.0662 23.9145C74.873 23.9705 74.7763 23.8725 74.7763 23.6205C74.7211 23.4525 74.804 23.3405 75.0248 23.2845ZM78.6682 14.1717C79.4687 13.9197 80.2139 13.7937 80.904 13.7937C81.6216 13.7937 82.2565 13.9617 82.8085 14.2977C83.3606 14.6056 83.747 15.1656 83.9678 15.9775C84.1334 16.5374 84.161 17.0553 84.0506 17.5313C83.9402 17.9792 83.7194 18.3852 83.3882 18.7491C83.0845 19.0851 82.6705 19.393 82.1461 19.673C81.6492 19.925 81.0972 20.1489 80.49 20.3449C80.1035 20.4849 79.7171 20.5969 79.3307 20.6809C78.9442 20.7369 78.5716 20.7649 78.2128 20.7649C77.4951 20.7649 76.8603 20.5969 76.3083 20.2609C75.7838 19.925 75.4112 19.365 75.1904 18.5811C75.0248 18.0212 74.9972 17.5173 75.1076 17.0693C75.218 16.5934 75.425 16.1734 75.7286 15.8095C76.0598 15.4455 76.4739 15.1376 76.9707 14.8856C77.4951 14.6056 78.061 14.3677 78.6682 14.1717Z" fill="white"/>
<path d="M85.5816 28.3239C85.5816 27.1481 85.8438 26.1122 86.3682 25.2163C86.9202 24.2924 87.6517 23.5225 88.5626 22.9066C89.4734 22.2627 90.5223 21.7867 91.7092 21.4788C92.9237 21.1428 94.2072 20.9748 95.5597 20.9748C96.4429 20.9748 97.2986 21.0728 98.1266 21.2688C98.9823 21.4368 99.7552 21.7027 100.445 22.0667C101.135 22.4026 101.687 22.8366 102.101 23.3685C102.515 23.8725 102.722 24.4744 102.722 25.1743C102.722 25.6502 102.598 26.0842 102.35 26.4761C102.129 26.8681 101.825 27.218 101.439 27.526C101.08 27.806 100.68 28.0299 100.238 28.1979C99.7966 28.3659 99.3549 28.4499 98.9133 28.4499C98.1681 28.4499 97.547 28.2119 97.0502 27.736C96.5533 27.232 96.3049 26.5041 96.3049 25.5523C96.3049 24.4604 96.0013 23.6485 95.3941 23.1166C94.8144 22.5846 94.1244 22.3187 93.3239 22.3187C92.4406 22.3187 91.6816 22.5846 91.0467 23.1166C90.4395 23.6205 90.1359 24.3344 90.1359 25.2583C90.1359 25.7622 90.2463 26.2662 90.4671 26.7701C90.6879 27.274 91.0191 27.722 91.4608 28.1139C91.93 28.5059 92.5097 28.8278 93.1997 29.0798C93.9174 29.3318 94.7592 29.4578 95.7253 29.4578C95.9461 29.4578 96.1807 29.4578 96.4291 29.4578C96.6775 29.4578 96.9398 29.4298 97.2158 29.3738H97.2986C97.7678 29.3738 98.3613 29.4718 99.0789 29.6677C99.7966 29.8637 100.487 30.2137 101.149 30.7176C101.812 31.2215 102.377 31.9075 102.847 32.7754C103.343 33.6432 103.592 34.7351 103.592 36.0509C103.592 37.2268 103.343 38.2767 102.847 39.2006C102.35 40.0964 101.646 40.8663 100.735 41.5103C99.8518 42.1262 98.7891 42.5881 97.547 42.8961C96.3049 43.232 94.9386 43.4 93.4481 43.4C92.4821 43.4 91.5298 43.302 90.5913 43.1061C89.6528 42.9381 88.811 42.6861 88.0657 42.3502C87.3205 41.9862 86.7132 41.5523 86.244 41.0483C85.8024 40.5164 85.5816 39.9005 85.5816 39.2006C85.5816 38.6966 85.7058 38.2487 85.9542 37.8567C86.2302 37.4368 86.5752 37.0868 86.9893 36.8068C87.4033 36.5269 87.8587 36.3169 88.3555 36.1769C88.8524 36.0089 89.3216 35.925 89.7633 35.925C90.5913 35.925 91.2676 36.1769 91.792 36.6809C92.344 37.1568 92.6201 37.8707 92.6201 38.8226C92.6201 39.8305 92.9237 40.6284 93.5309 41.2163C94.1658 41.7762 94.9662 42.0562 95.9323 42.0562C96.7328 42.0562 97.4504 41.8042 98.0853 41.3003C98.7201 40.7964 99.0375 40.0684 99.0375 39.1166C99.0375 38.5846 98.9271 38.0667 98.7063 37.5628C98.4855 37.0308 98.1543 36.5549 97.7126 36.1349C97.271 35.715 96.7051 35.379 96.0151 35.1271C95.3251 34.8751 94.5108 34.7491 93.5723 34.7491C93.0755 34.7491 92.5373 34.7911 91.9576 34.8751H91.8748C91.4056 34.8751 90.8121 34.7771 90.0945 34.5811C89.3768 34.3572 88.6868 33.9932 88.0243 33.4893C87.3619 32.9853 86.7822 32.3134 86.2854 31.4735C85.8162 30.6336 85.5816 29.5838 85.5816 28.3239Z" fill="white"/>
<path d="M104.784 16.3974C104.784 16.0894 104.715 15.8515 104.577 15.6835C104.439 15.5155 104.274 15.3895 104.081 15.3055C103.915 15.2215 103.722 15.1656 103.501 15.1376C103.308 15.1096 103.128 15.0956 102.963 15.0956C102.769 15.1516 102.673 15.0536 102.673 14.8016C102.618 14.6336 102.7 14.5216 102.921 14.4656C103.473 14.3817 104.163 14.2277 104.991 14.0037C105.847 13.7797 106.717 13.5278 107.6 13.2478C108.511 12.9678 109.394 12.6739 110.25 12.3659C111.105 12.0299 111.809 11.722 112.361 11.442C112.389 11.414 112.444 11.4 112.527 11.4C112.665 11.4 112.748 11.442 112.775 11.526C112.886 11.694 112.872 11.82 112.734 11.904C112.513 12.0439 112.237 12.3519 111.906 12.8278C111.575 13.2758 111.409 13.9197 111.409 14.7596V39.9565C111.437 40.3204 111.506 40.6424 111.616 40.9223C111.699 41.1743 111.837 41.4123 112.03 41.6362C112.251 41.8322 112.554 41.9302 112.941 41.9302H113.272C113.52 41.9302 113.589 42.0282 113.479 42.2242L113.313 42.5181C113.231 42.6581 113.12 42.7281 112.982 42.7281H103.335C103.17 42.7281 103.046 42.6441 102.963 42.4761L102.88 42.2662C102.797 42.0702 102.88 41.9722 103.128 41.9722H103.418C103.667 41.9442 103.901 41.8742 104.122 41.7622C104.288 41.6502 104.439 41.4823 104.577 41.2583C104.715 41.0343 104.784 40.7124 104.784 40.2924V16.3974Z" fill="white"/>
<path d="M112.868 32.1454C112.868 30.3817 113.158 28.8138 113.737 27.442C114.317 26.0702 115.103 24.9083 116.097 23.9565C117.118 22.9766 118.305 22.2347 119.658 21.7307C121.01 21.2268 122.446 20.9748 123.964 20.9748C125.509 20.9748 126.945 21.2268 128.27 21.7307C129.622 22.2347 130.795 22.9766 131.789 23.9565C132.81 24.9083 133.611 26.0702 134.19 27.442C134.77 28.8138 135.06 30.3817 135.06 32.1454C135.06 33.9092 134.77 35.477 134.19 36.8488C133.611 38.2207 132.81 39.3965 131.789 40.3764C130.795 41.3283 129.622 42.0562 128.27 42.5601C126.945 43.0641 125.509 43.316 123.964 43.316C122.446 43.316 121.01 43.0641 119.658 42.5601C118.305 42.0562 117.118 41.3283 116.097 40.3764C115.103 39.3965 114.317 38.2207 113.737 36.8488C113.158 35.477 112.868 33.9092 112.868 32.1454ZM118.623 40.8803C118.899 41.0203 119.161 41.0903 119.409 41.0903C120.237 41.0903 121.273 40.5304 122.515 39.4105C123.784 38.2627 125.164 36.4289 126.655 33.9092C128.421 30.8856 129.457 28.4919 129.76 26.7281C130.064 24.9643 129.815 23.8445 129.015 23.3685C128.739 23.2285 128.463 23.1586 128.187 23.1586C127.359 23.1586 126.31 23.7325 125.04 24.8803C123.798 26.0002 122.432 27.834 120.941 30.3817C119.175 33.3773 118.14 35.757 117.836 37.5208C117.56 39.2845 117.822 40.4044 118.623 40.8803Z" fill="white"/>
<path d="M159.301 41.9722C159.274 42.0842 159.177 42.1682 159.012 42.2242L153.878 43.1061C152.774 43.1061 151.863 42.8821 151.145 42.4341C150.455 41.9582 149.82 41.2723 149.241 40.3764L146.425 36.0929C146.039 35.449 145.597 34.9311 145.1 34.5391C144.631 34.1192 144.065 33.9092 143.403 33.9092C143.182 33.9092 143.016 33.9232 142.906 33.9512V39.9565C142.933 40.3204 143.003 40.6424 143.113 40.9223C143.196 41.1743 143.334 41.4123 143.527 41.6362C143.748 41.8322 144.051 41.9302 144.438 41.9302H144.769C145.017 41.9302 145.086 42.0282 144.976 42.2242L144.81 42.5181C144.728 42.6581 144.617 42.7281 144.479 42.7281H134.832C134.667 42.7281 134.542 42.6441 134.46 42.4761L134.377 42.2662C134.294 42.0702 134.377 41.9722 134.625 41.9722H134.915C135.274 41.9722 135.536 41.8882 135.702 41.7202C135.895 41.5523 136.033 41.3563 136.116 41.1323C136.226 40.8803 136.281 40.6004 136.281 40.2924V16.3974C136.281 16.0894 136.212 15.8515 136.074 15.6835C135.936 15.5155 135.771 15.3895 135.578 15.3055C135.412 15.2215 135.219 15.1656 134.998 15.1376C134.805 15.1096 134.625 15.0956 134.46 15.0956C134.266 15.1516 134.17 15.0536 134.17 14.8016C134.115 14.6336 134.197 14.5216 134.418 14.4656C134.97 14.3257 135.66 14.1577 136.488 13.9617C137.344 13.7377 138.227 13.4998 139.138 13.2478C140.049 12.9678 140.919 12.6739 141.747 12.3659C142.602 12.0579 143.306 11.75 143.858 11.442C143.886 11.414 143.941 11.4 144.024 11.4C144.162 11.4 144.245 11.442 144.272 11.526C144.355 11.666 144.341 11.792 144.231 11.904C144.038 12.0999 143.762 12.4219 143.403 12.8698C143.072 13.2898 142.906 13.9197 142.906 14.7596V23.9565C143.127 23.7885 143.444 23.5505 143.858 23.2425C144.3 22.9066 144.852 22.5846 145.514 22.2767C146.204 21.9687 146.991 21.7027 147.874 21.4788C148.785 21.2548 149.806 21.1428 150.938 21.1428C152.318 21.1428 153.408 21.3248 154.209 21.6887C155.037 22.0527 155.672 22.4866 156.113 22.9906C156.555 23.4945 156.831 24.0124 156.941 24.5444C157.08 25.0483 157.149 25.4543 157.149 25.7622C157.149 26.7981 156.942 27.708 156.527 28.4919C156.141 29.2758 155.617 29.9617 154.954 30.5496C154.292 31.1096 153.533 31.5995 152.677 32.0194C151.849 32.4114 150.993 32.7334 150.11 32.9853C150.745 33.0973 151.283 33.3353 151.725 33.6992C152.194 34.0352 152.649 34.4831 153.091 35.0431C153.533 35.603 153.988 36.2469 154.457 36.9748C154.927 37.7027 155.465 38.5146 156.072 39.4105C156.32 39.7745 156.596 40.0964 156.9 40.3764C157.176 40.6284 157.48 40.8663 157.811 41.0903C158.142 41.2863 158.501 41.3843 158.887 41.3843H159.219C159.467 41.3843 159.536 41.4823 159.426 41.6782L159.301 41.9722ZM149.075 26.8541C149.075 26.6301 149.047 26.3222 148.992 25.9302C148.937 25.5103 148.799 25.1043 148.578 24.7124C148.385 24.3204 148.109 23.9845 147.75 23.7045C147.391 23.4245 146.894 23.2845 146.26 23.2845C145.487 23.2845 144.838 23.4525 144.314 23.7885C143.817 24.1244 143.417 24.4744 143.113 24.8383C143.085 24.8663 143.044 24.9363 142.989 25.0483L142.947 25.2163C142.92 25.2443 142.906 25.3143 142.906 25.4263V32.6074C142.906 32.9993 143.127 33.1953 143.568 33.1953C144.065 33.1393 144.631 33.0133 145.266 32.8173C145.901 32.5934 146.494 32.2434 147.046 31.7675C147.626 31.2915 148.109 30.6616 148.495 29.8777C148.882 29.0658 149.075 28.0579 149.075 26.8541Z" fill="white"/>
<path d="M168.831 29.5837C170.432 29.5558 171.605 29.1918 172.351 28.4919C173.096 27.792 173.468 26.9101 173.468 25.8462C173.468 24.7824 173.151 23.8865 172.516 23.1586C171.881 22.4306 171.026 22.0667 169.949 22.0667C169.038 22.0667 168.293 22.3747 167.713 22.9906C167.134 23.6065 166.844 24.4604 166.844 25.5523C166.844 26.5041 166.596 27.232 166.099 27.736C165.602 28.2119 164.981 28.4499 164.236 28.4499C163.822 28.4499 163.38 28.3659 162.911 28.1979C162.469 28.0299 162.055 27.806 161.669 27.526C161.31 27.218 161.006 26.8681 160.758 26.4761C160.537 26.0562 160.426 25.6222 160.426 25.1743C160.426 24.4744 160.633 23.8725 161.048 23.3685C161.462 22.8366 162.014 22.4026 162.704 22.0667C163.394 21.7027 164.167 21.4368 165.022 21.2688C165.878 21.0728 166.734 20.9748 167.589 20.9748C168.942 20.9748 170.211 21.1428 171.398 21.4788C172.613 21.7867 173.675 22.2627 174.586 22.9066C175.497 23.5225 176.215 24.2924 176.739 25.2163C177.291 26.1122 177.567 27.1481 177.567 28.3239V39.9565C177.595 40.3204 177.664 40.6424 177.774 40.9223C177.857 41.1743 177.995 41.4123 178.188 41.6362C178.409 41.8322 178.713 41.9302 179.099 41.9302H179.513C179.706 41.9302 179.817 42.0142 179.844 42.1822C179.844 42.4061 179.651 42.5881 179.265 42.7281C178.878 42.8681 178.437 42.9801 177.94 43.0641C177.471 43.1481 177.001 43.204 176.532 43.232C176.063 43.26 175.746 43.274 175.58 43.274C174.641 43.246 173.758 43.1061 172.93 42.8541C172.13 42.6021 171.578 42.1402 171.274 41.4683C170.694 42.0562 169.991 42.5181 169.162 42.8541C168.334 43.218 167.258 43.4 165.933 43.4C164.967 43.4 164.015 43.232 163.076 42.8961C162.138 42.5881 161.296 42.1262 160.551 41.5103C159.805 40.8663 159.198 40.0964 158.729 39.2006C158.287 38.3047 158.066 37.2688 158.066 36.0929C158.066 34.7771 158.329 33.6852 158.853 32.8173C159.405 31.9495 160.054 31.2635 160.799 30.7596C161.572 30.2557 162.359 29.9057 163.159 29.7097C163.987 29.5138 164.663 29.4158 165.188 29.4158C165.823 29.4718 166.457 29.5138 167.092 29.5418C167.755 29.5698 168.334 29.5837 168.831 29.5837ZM167.755 42.2662C168.638 42.2662 169.37 41.6642 169.949 40.4604C170.556 39.2285 170.86 37.4088 170.86 35.0011V31.1796C170.86 30.5916 170.543 30.2977 169.908 30.2977C169.659 30.2977 169.37 30.2977 169.038 30.2977C168.735 30.2977 168.403 30.3117 168.045 30.3397C167.686 30.3677 167.327 30.4656 166.968 30.6336C166.609 30.7736 166.292 31.0536 166.016 31.4735C165.74 31.8935 165.519 32.4534 165.353 33.1533C165.188 33.8532 165.105 34.7631 165.105 35.883C165.105 38.0947 165.367 39.7185 165.892 40.7544C166.444 41.7622 167.065 42.2662 167.755 42.2662Z" fill="white"/>
</g>
<defs>
<filter id="filter0_d_3_24" x="-5.72205e-06" y="2.47955e-05" width="195.244" height="62.8" filterUnits="userSpaceOnUse" color-interpolation-filters="sRGB">
<feFlood flood-opacity="0" result="BackgroundImageFix"/>
<feColorMatrix in="SourceAlpha" type="matrix" values="0 0 0 0 0 0 0 0 0 0 0 0 0 0 0 0 0 0 127 0" result="hardAlpha"/>
<feOffset dy="4"/>
<feGaussianBlur stdDeviation="7.7"/>
<feComposite in2="hardAlpha" operator="out"/>
<feColorMatrix type="matrix" values="0 0 0 0 0 0 0 0 0 0 0 0 0 0 0 0 0 0 0.25 0"/>
<feBlend mode="normal" in2="BackgroundImageFix" result="effect1_dropShadow_3_24"/>
<feBlend mode="normal" in="SourceGraphic" in2="effect1_dropShadow_3_24" result="shape"/>
</filter>
</defs>
</svg>
