<svg width="82" height="82" viewBox="0 0 82 82" fill="none" xmlns="http://www.w3.org/2000/svg">
<path d="M21.0833 58.2917L1.5 46.5417L21.0833 34.7917L40.6667 46.5417V68.0834L21.0833 79.8334V58.2917Z" stroke="#004035" stroke-width="3" stroke-linecap="round" stroke-linejoin="round"/>
<path d="M1.5 46.5417V68.0833L21.0833 79.8333M21.0833 58.4679L40.6667 46.6004M60.25 58.2917L40.6667 46.5417M60.25 58.2917V79.8333M60.25 58.2917L79.8333 46.5417M40.6667 46.5417L60.25 34.7917M40.6667 46.5417V25M60.25 34.7917L79.8333 46.5417M60.25 34.7917V13.25M79.8333 46.5417V68.0833L60.25 79.8333M60.25 79.8333L40.6667 68.0833M40.6667 25L21.0833 13.25L40.6667 1.5L60.25 13.25M40.6667 25L60.25 13.25M21.0833 13.3675V34.7329" stroke="#004035" stroke-width="3" stroke-linecap="round" stroke-linejoin="round"/>
</svg>
