<svg width="72" height="72" viewBox="0 0 72 72" fill="none" xmlns="http://www.w3.org/2000/svg">
<path d="M19.629 42.625L35.7852 26.4688M28.4415 51.4375L35.7852 44.0938M3.22012 35.5339L35.5326 3.22137C36.6341 2.11952 38.1282 1.50033 39.6862 1.5H63.6915C65.2496 1.5 66.744 2.11897 67.8457 3.22075C68.9475 4.32252 69.5665 5.81685 69.5665 7.375V31.3802C69.5662 32.9383 68.947 34.4324 67.8451 35.5339L35.5326 67.8464C34.4309 68.9478 32.9368 69.5665 31.379 69.5665C29.8212 69.5665 28.3271 68.9478 27.2254 67.8464L3.22012 43.8411C2.11873 42.7394 1.5 41.2453 1.5 39.6875C1.5 38.1297 2.11873 36.6356 3.22012 35.5339Z" stroke="#004035" stroke-width="3" stroke-linecap="round" stroke-linejoin="round"/>
<path d="M57.8165 16.1875C57.8165 16.9666 57.507 17.7137 56.9561 18.2646C56.4052 18.8155 55.658 19.125 54.879 19.125C54.0999 19.125 53.3527 18.8155 52.8018 18.2646C52.251 17.7137 51.9415 16.9666 51.9415 16.1875C51.9415 15.4084 52.251 14.6613 52.8018 14.1104C53.3527 13.5595 54.0999 13.25 54.879 13.25C55.658 13.25 56.4052 13.5595 56.9561 14.1104C57.507 14.6613 57.8165 15.4084 57.8165 16.1875Z" fill="#004035"/>
</svg>
