<svg width="76" height="70" viewBox="0 0 76 70" fill="none" xmlns="http://www.w3.org/2000/svg">
<path d="M7.892 22.3092V55.6009C7.892 58.9105 9.23933 62.0869 11.6403 64.4252C14.0602 66.7781 17.3046 68.0911 20.6799 68.0833H54.7784C58.1703 68.0833 61.4211 66.7673 63.8181 64.4252C65.0001 63.2789 65.9407 61.9075 66.5844 60.392C67.2282 58.8765 67.562 57.2475 67.5663 55.6009V22.3092M7.892 22.3092C4.35917 22.3092 1.5 19.5127 1.5 16.0661V7.74317C1.5 4.2965 4.36308 1.5 7.892 1.5H67.5663C71.0992 1.5 73.9583 4.2965 73.9583 7.74317V16.0661C73.9583 19.5127 71.0953 22.3092 67.5663 22.3092M7.892 22.3092H67.5663" stroke="#004035" stroke-width="3" stroke-linecap="round" stroke-linejoin="round"/>
<path d="M25.9792 44.8731L32.5944 51.4883C32.8266 51.7242 33.1034 51.9116 33.4086 52.0394C33.7139 52.1673 34.0416 52.2332 34.3726 52.2332C34.7036 52.2332 35.0312 52.1673 35.3365 52.0394C35.6418 51.9116 35.9186 51.7242 36.1507 51.4883L49.4792 38.1599" stroke="#004035" stroke-width="3" stroke-linecap="round" stroke-linejoin="round"/>
</svg>
