<svg width="86" height="68" viewBox="0 0 86 68" fill="none" xmlns="http://www.w3.org/2000/svg">
<path d="M85.0523 1.51495C85.0305 1.15628 84.8779 0.818069 84.6235 0.56432C84.3691 0.310571 84.0304 0.158895 83.6717 0.138C65.2205 -0.963563 50.4633 4.58097 44.1917 14.932C39.9176 21.9893 40.0902 30.3245 44.647 38.5091C41.4312 42.0416 39.3078 46.4302 38.5333 51.144L29.9081 42.5188C33.0769 36.6438 33.143 30.6476 30.0623 25.5584C25.5019 18.0274 14.8167 14.003 1.46944 14.7851C1.11261 14.8076 0.776249 14.9596 0.523428 15.2124C0.270608 15.4652 0.11869 15.8016 0.0961603 16.1584C-0.685949 29.4983 3.33843 40.1835 10.8694 44.7439C13.2864 46.2281 16.0673 47.0136 18.9035 47.0132C22.0341 46.9598 25.102 46.1269 27.8298 44.5897L38.1882 54.9591V66.0959C38.1882 66.4854 38.3429 66.859 38.6184 67.1345C38.8938 67.4099 39.2674 67.5646 39.6569 67.5646C40.0465 67.5646 40.4201 67.4099 40.6955 67.1345C40.971 66.859 41.1257 66.4854 41.1257 66.0959V55.2675C41.1119 49.845 43.1127 44.6107 46.74 40.58C50.959 42.9153 55.211 44.0904 59.3125 44.0904C63.1762 44.0911 66.9647 43.0222 70.2583 41.0023C80.6057 34.7271 86.1392 19.9698 85.0523 1.51495ZM12.3896 42.2287C6.04827 38.3953 2.571 29.2633 2.96757 17.6565C14.5744 17.2563 23.7063 20.7372 27.5691 27.0785C29.9485 31.0111 29.9889 35.6597 27.738 40.3303L17.1924 29.8068C16.913 29.5536 16.547 29.4176 16.1701 29.4269C15.7932 29.4361 15.4342 29.59 15.1677 29.8566C14.9011 30.1232 14.7472 30.4821 14.7379 30.859C14.7286 31.2359 14.8646 31.602 15.1178 31.8814L25.6451 42.4086C20.9708 44.6595 16.3222 44.6191 12.3896 42.2287ZM68.7345 38.4834C62.8412 42.0525 55.8499 42.0047 48.877 38.3916L70.0711 17.1939C70.3352 16.9164 70.4804 16.5468 70.4758 16.1638C70.4713 15.7808 70.3173 15.4147 70.0467 15.1436C69.7761 14.8725 69.4103 14.7179 69.0273 14.7127C68.6443 14.7074 68.2744 14.852 67.9965 15.1156L46.7987 36.3133C43.1856 29.3368 43.1269 22.3602 46.7069 16.4558C52.2551 7.27613 65.4629 2.30808 82.1883 3.00206C82.8859 19.7275 77.8995 32.9352 68.7345 38.4834Z" fill="#004035"/>
</svg>
